<mxfile host="app.diagrams.net" modified="2023-08-09T03:08:31.642Z" agent="Mozilla/5.0 (X11; Linux x86_64) AppleWebKit/537.36 (KHTML, like Gecko) Chrome/114.0.0.0 Safari/537.36" etag="WoXvGOpfyItcLxMYv9cS" version="21.6.6" type="github" pages="2">
  <diagram name="Page-1" id="2NZGdXL6S-YoQvj-Z973">
    <mxGraphModel dx="1046" dy="529" grid="1" gridSize="10" guides="1" tooltips="1" connect="1" arrows="1" fold="1" page="1" pageScale="1" pageWidth="850" pageHeight="1100" math="0" shadow="0">
      <root>
        <mxCell id="0" />
        <mxCell id="1" parent="0" />
      </root>
    </mxGraphModel>
  </diagram>
  <diagram id="R7iv5lhoor_2yKdGO5mK" name="Page-2">
    <mxGraphModel dx="2947" dy="1982" grid="1" gridSize="10" guides="1" tooltips="1" connect="1" arrows="1" fold="1" page="1" pageScale="1" pageWidth="850" pageHeight="1100" math="0" shadow="0">
      <root>
        <mxCell id="0" />
        <mxCell id="1" parent="0" />
        <mxCell id="_byx3r2UQ2_LhqrZr94k-4" value="" style="strokeWidth=2;html=1;shape=mxgraph.flowchart.annotation_2;align=left;labelPosition=right;pointerEvents=1;" parent="1" vertex="1">
          <mxGeometry x="230" y="237.5" width="100" height="195" as="geometry" />
        </mxCell>
        <mxCell id="_byx3r2UQ2_LhqrZr94k-6" value="" style="verticalLabelPosition=bottom;html=1;verticalAlign=top;align=center;strokeColor=none;fillColor=#00BEF2;shape=mxgraph.azure.queue_generic;pointerEvents=1;" parent="1" vertex="1">
          <mxGeometry x="340" y="200" width="195" height="60" as="geometry" />
        </mxCell>
        <mxCell id="_byx3r2UQ2_LhqrZr94k-7" value="" style="verticalLabelPosition=bottom;html=1;verticalAlign=top;align=center;strokeColor=none;fillColor=#00BEF2;shape=mxgraph.azure.queue_generic;pointerEvents=1;" parent="1" vertex="1">
          <mxGeometry x="340" y="400" width="195" height="60" as="geometry" />
        </mxCell>
        <mxCell id="_byx3r2UQ2_LhqrZr94k-8" value="" style="verticalLabelPosition=bottom;html=1;verticalAlign=top;align=center;strokeColor=none;fillColor=#00BEF2;shape=mxgraph.azure.queue_generic;pointerEvents=1;" parent="1" vertex="1">
          <mxGeometry x="340" y="305" width="195" height="60" as="geometry" />
        </mxCell>
        <mxCell id="_byx3r2UQ2_LhqrZr94k-9" value="" style="endArrow=none;html=1;rounded=0;exitX=0.5;exitY=0.505;exitDx=0;exitDy=0;exitPerimeter=0;entryX=0;entryY=0.5;entryDx=0;entryDy=0;entryPerimeter=0;" parent="1" source="_byx3r2UQ2_LhqrZr94k-4" target="_byx3r2UQ2_LhqrZr94k-8" edge="1">
          <mxGeometry width="50" height="50" relative="1" as="geometry">
            <mxPoint x="420" y="340" as="sourcePoint" />
            <mxPoint x="470" y="290" as="targetPoint" />
          </mxGeometry>
        </mxCell>
        <mxCell id="_byx3r2UQ2_LhqrZr94k-22" style="edgeStyle=orthogonalEdgeStyle;rounded=0;orthogonalLoop=1;jettySize=auto;html=1;exitX=0.5;exitY=0;exitDx=0;exitDy=0;" parent="1" source="_byx3r2UQ2_LhqrZr94k-10" edge="1">
          <mxGeometry relative="1" as="geometry">
            <mxPoint x="275" y="-80" as="targetPoint" />
          </mxGeometry>
        </mxCell>
        <mxCell id="_byx3r2UQ2_LhqrZr94k-10" value="Partition-1" style="swimlane;whiteSpace=wrap;html=1;startSize=23;" parent="1" vertex="1">
          <mxGeometry x="250" y="-45" width="90" height="115" as="geometry" />
        </mxCell>
        <mxCell id="_byx3r2UQ2_LhqrZr94k-23" style="edgeStyle=orthogonalEdgeStyle;rounded=0;orthogonalLoop=1;jettySize=auto;html=1;exitX=0.5;exitY=0;exitDx=0;exitDy=0;" parent="1" source="_byx3r2UQ2_LhqrZr94k-12" edge="1">
          <mxGeometry relative="1" as="geometry">
            <mxPoint x="410" y="-100" as="targetPoint" />
          </mxGeometry>
        </mxCell>
        <mxCell id="_byx3r2UQ2_LhqrZr94k-12" value="Partition-2" style="swimlane;whiteSpace=wrap;html=1;" parent="1" vertex="1">
          <mxGeometry x="380" y="-50" width="90" height="115" as="geometry" />
        </mxCell>
        <mxCell id="_byx3r2UQ2_LhqrZr94k-24" style="edgeStyle=orthogonalEdgeStyle;rounded=0;orthogonalLoop=1;jettySize=auto;html=1;exitX=0.5;exitY=0;exitDx=0;exitDy=0;" parent="1" source="_byx3r2UQ2_LhqrZr94k-13" edge="1">
          <mxGeometry relative="1" as="geometry">
            <mxPoint x="565" y="-80" as="targetPoint" />
          </mxGeometry>
        </mxCell>
        <mxCell id="_byx3r2UQ2_LhqrZr94k-13" value="Partition-3" style="swimlane;whiteSpace=wrap;html=1;" parent="1" vertex="1">
          <mxGeometry x="510" y="-50" width="90" height="115" as="geometry" />
        </mxCell>
        <mxCell id="_byx3r2UQ2_LhqrZr94k-15" value="" style="endArrow=classic;html=1;rounded=0;exitX=0.462;exitY=0.033;exitDx=0;exitDy=0;exitPerimeter=0;entryX=0.5;entryY=1;entryDx=0;entryDy=0;" parent="1" source="_byx3r2UQ2_LhqrZr94k-6" target="_byx3r2UQ2_LhqrZr94k-10" edge="1">
          <mxGeometry width="50" height="50" relative="1" as="geometry">
            <mxPoint x="420" y="340" as="sourcePoint" />
            <mxPoint x="300" y="190" as="targetPoint" />
          </mxGeometry>
        </mxCell>
        <mxCell id="_byx3r2UQ2_LhqrZr94k-16" value="" style="endArrow=classic;html=1;rounded=0;exitX=0.462;exitY=0.033;exitDx=0;exitDy=0;exitPerimeter=0;entryX=0.5;entryY=1;entryDx=0;entryDy=0;" parent="1" target="_byx3r2UQ2_LhqrZr94k-12" edge="1">
          <mxGeometry width="50" height="50" relative="1" as="geometry">
            <mxPoint x="440" y="212" as="sourcePoint" />
            <mxPoint x="305" y="80" as="targetPoint" />
          </mxGeometry>
        </mxCell>
        <mxCell id="_byx3r2UQ2_LhqrZr94k-17" value="" style="endArrow=classic;html=1;rounded=0;exitX=0.559;exitY=0.083;exitDx=0;exitDy=0;exitPerimeter=0;entryX=0.5;entryY=1;entryDx=0;entryDy=0;" parent="1" source="_byx3r2UQ2_LhqrZr94k-6" target="_byx3r2UQ2_LhqrZr94k-13" edge="1">
          <mxGeometry width="50" height="50" relative="1" as="geometry">
            <mxPoint x="450" y="222" as="sourcePoint" />
            <mxPoint x="315" y="90" as="targetPoint" />
          </mxGeometry>
        </mxCell>
        <mxCell id="_byx3r2UQ2_LhqrZr94k-41" value="" style="strokeWidth=2;dashed=0;align=center;fontSize=8;shape=rect;fillColor=#fffbc0;strokeColor=#000000;" parent="1" vertex="1">
          <mxGeometry x="260" y="-100" width="26" height="18" as="geometry" />
        </mxCell>
        <mxCell id="_byx3r2UQ2_LhqrZr94k-42" value="" style="strokeWidth=2;dashed=0;align=center;fontSize=8;shape=rect;fillColor=#fffbc0;strokeColor=#000000;" parent="1" vertex="1">
          <mxGeometry x="550" y="-100" width="26" height="18" as="geometry" />
        </mxCell>
        <mxCell id="_byx3r2UQ2_LhqrZr94k-43" value="" style="strokeWidth=2;dashed=0;align=center;fontSize=8;shape=rect;fillColor=#fffbc0;strokeColor=#000000;" parent="1" vertex="1">
          <mxGeometry x="399" y="-118" width="26" height="18" as="geometry" />
        </mxCell>
        <mxCell id="_byx3r2UQ2_LhqrZr94k-44" value="" style="strokeWidth=2;dashed=0;align=center;fontSize=8;shape=rect;fillColor=#c0f5a9;strokeColor=#000000;" parent="1" vertex="1">
          <mxGeometry x="380" y="-180" width="46" height="18" as="geometry" />
        </mxCell>
        <mxCell id="_byx3r2UQ2_LhqrZr94k-48" value="" style="edgeStyle=none;endArrow=none;dashed=0;html=1;strokeWidth=2;rounded=0;" parent="1" source="_byx3r2UQ2_LhqrZr94k-44" target="_byx3r2UQ2_LhqrZr94k-41" edge="1">
          <mxGeometry relative="1" as="geometry" />
        </mxCell>
        <mxCell id="_byx3r2UQ2_LhqrZr94k-49" value="" style="edgeStyle=none;endArrow=none;dashed=0;html=1;strokeWidth=2;rounded=0;" parent="1" source="_byx3r2UQ2_LhqrZr94k-44" target="_byx3r2UQ2_LhqrZr94k-42" edge="1">
          <mxGeometry relative="1" as="geometry" />
        </mxCell>
        <mxCell id="_byx3r2UQ2_LhqrZr94k-50" value="" style="edgeStyle=none;endArrow=none;dashed=0;html=1;strokeWidth=2;rounded=0;" parent="1" source="_byx3r2UQ2_LhqrZr94k-44" target="_byx3r2UQ2_LhqrZr94k-43" edge="1">
          <mxGeometry relative="1" as="geometry" />
        </mxCell>
        <mxCell id="_byx3r2UQ2_LhqrZr94k-54" value="" style="shape=actor;whiteSpace=wrap;html=1;" parent="1" vertex="1">
          <mxGeometry x="220" y="-300" width="40" height="60" as="geometry" />
        </mxCell>
        <mxCell id="_byx3r2UQ2_LhqrZr94k-55" value="" style="shape=actor;whiteSpace=wrap;html=1;" parent="1" vertex="1">
          <mxGeometry x="510" y="-300" width="40" height="60" as="geometry" />
        </mxCell>
        <mxCell id="_byx3r2UQ2_LhqrZr94k-56" value="" style="shape=actor;whiteSpace=wrap;html=1;" parent="1" vertex="1">
          <mxGeometry x="380" y="-300" width="40" height="60" as="geometry" />
        </mxCell>
        <mxCell id="_byx3r2UQ2_LhqrZr94k-57" value="" style="shape=actor;whiteSpace=wrap;html=1;" parent="1" vertex="1">
          <mxGeometry x="320" y="-300" width="40" height="60" as="geometry" />
        </mxCell>
        <mxCell id="_byx3r2UQ2_LhqrZr94k-58" value="" style="shape=actor;whiteSpace=wrap;html=1;" parent="1" vertex="1">
          <mxGeometry x="399" y="-270" width="40" height="60" as="geometry" />
        </mxCell>
        <mxCell id="_byx3r2UQ2_LhqrZr94k-59" value="" style="shape=actor;whiteSpace=wrap;html=1;" parent="1" vertex="1">
          <mxGeometry x="320" y="-270" width="40" height="60" as="geometry" />
        </mxCell>
        <mxCell id="_byx3r2UQ2_LhqrZr94k-60" value="" style="endArrow=classic;html=1;rounded=0;entryX=0.25;entryY=1;entryDx=0;entryDy=0;exitX=1;exitY=0;exitDx=0;exitDy=0;" parent="1" source="_byx3r2UQ2_LhqrZr94k-44" target="_byx3r2UQ2_LhqrZr94k-55" edge="1">
          <mxGeometry width="50" height="50" relative="1" as="geometry">
            <mxPoint x="460" y="-120" as="sourcePoint" />
            <mxPoint x="510" y="-170" as="targetPoint" />
          </mxGeometry>
        </mxCell>
        <mxCell id="_byx3r2UQ2_LhqrZr94k-62" value="" style="endArrow=classic;html=1;rounded=0;entryX=0.75;entryY=1;entryDx=0;entryDy=0;" parent="1" source="_byx3r2UQ2_LhqrZr94k-44" target="_byx3r2UQ2_LhqrZr94k-54" edge="1">
          <mxGeometry width="50" height="50" relative="1" as="geometry">
            <mxPoint x="436" y="-170" as="sourcePoint" />
            <mxPoint x="530" y="-230" as="targetPoint" />
          </mxGeometry>
        </mxCell>
        <mxCell id="_byx3r2UQ2_LhqrZr94k-63" value="" style="endArrow=classic;html=1;rounded=0;" parent="1" source="_byx3r2UQ2_LhqrZr94k-44" target="_byx3r2UQ2_LhqrZr94k-59" edge="1">
          <mxGeometry width="50" height="50" relative="1" as="geometry">
            <mxPoint x="446" y="-160" as="sourcePoint" />
            <mxPoint x="540" y="-220" as="targetPoint" />
          </mxGeometry>
        </mxCell>
        <mxCell id="_byx3r2UQ2_LhqrZr94k-64" value="" style="endArrow=classic;html=1;rounded=0;" parent="1" source="_byx3r2UQ2_LhqrZr94k-44" target="_byx3r2UQ2_LhqrZr94k-58" edge="1">
          <mxGeometry width="50" height="50" relative="1" as="geometry">
            <mxPoint x="456" y="-150" as="sourcePoint" />
            <mxPoint x="550" y="-210" as="targetPoint" />
          </mxGeometry>
        </mxCell>
        <mxCell id="_byx3r2UQ2_LhqrZr94k-66" value="Producer" style="shape=umlActor;verticalLabelPosition=bottom;verticalAlign=top;html=1;outlineConnect=0;" parent="1" vertex="1">
          <mxGeometry x="120" y="290" width="60" height="90" as="geometry" />
        </mxCell>
        <mxCell id="_byx3r2UQ2_LhqrZr94k-67" value="Message Queues" style="text;html=1;strokeColor=none;fillColor=none;align=center;verticalAlign=middle;whiteSpace=wrap;rounded=0;" parent="1" vertex="1">
          <mxGeometry x="395" y="500" width="60" height="30" as="geometry" />
        </mxCell>
        <mxCell id="_byx3r2UQ2_LhqrZr94k-68" value="Partitions inside each queue/topic" style="text;html=1;align=center;verticalAlign=middle;resizable=0;points=[];autosize=1;strokeColor=none;fillColor=none;" parent="1" vertex="1">
          <mxGeometry x="130" y="118" width="200" height="30" as="geometry" />
        </mxCell>
        <mxCell id="_byx3r2UQ2_LhqrZr94k-69" value="Broker assigned to each partition to send&lt;br&gt;&amp;nbsp;message to the desired consumer" style="text;html=1;align=center;verticalAlign=middle;resizable=0;points=[];autosize=1;strokeColor=none;fillColor=none;" parent="1" vertex="1">
          <mxGeometry x="-10" y="-110" width="240" height="40" as="geometry" />
        </mxCell>
        <mxCell id="_byx3r2UQ2_LhqrZr94k-70" value="Consumers" style="text;html=1;align=center;verticalAlign=middle;resizable=0;points=[];autosize=1;strokeColor=none;fillColor=none;" parent="1" vertex="1">
          <mxGeometry x="90" y="-285" width="80" height="30" as="geometry" />
        </mxCell>
        <mxCell id="_byx3r2UQ2_LhqrZr94k-71" value="&lt;font style=&quot;font-size: 24px;&quot;&gt;&lt;b&gt;&lt;font style=&quot;&quot;&gt;KAFKA&lt;/font&gt;&lt;/b&gt;&amp;nbsp;&lt;/font&gt;" style="text;html=1;align=center;verticalAlign=middle;resizable=0;points=[];autosize=1;strokeColor=none;fillColor=none;" parent="1" vertex="1">
          <mxGeometry x="360" y="550" width="110" height="40" as="geometry" />
        </mxCell>
      </root>
    </mxGraphModel>
  </diagram>
</mxfile>
